<?xml version="1.0" standalone="no"?>
<!DOCTYPE svg PUBLIC "-//W3C//DTD SVG 1.1//EN" "http://www.w3.org/Graphics/SVG/1.1/DTD/svg11.dtd">
<!--Generator: Xara Xtreme (www.xara.com), SVG filter version: 1.0.0.13-->
<svg stroke-width="0.501" stroke-linejoin="bevel" fill-rule="evenodd" xmlns:xlink="http://www.w3.org/1999/xlink" xmlns="http://www.w3.org/2000/svg" version="1.1" overflow="visible" width="600pt" height="450pt" viewBox="0 0 600 450">
 <defs>
  <marker id="DefaultArrow2" markerUnits="strokeWidth" viewBox="0 0 1 1" markerWidth="1" markerHeight="1" overflow="visible" orient="auto">
   <!-- REF_ARROW_STRAIGHT (-2) -->
   <g transform="scale(0.0092592592)">
    <!-- 1/108 -->
    <path d="M -9 54 L -9 -54 L 117 0 z"/>
   </g>
  </marker>
  <marker id="DefaultArrow3" markerUnits="strokeWidth" viewBox="0 0 1 1" markerWidth="1" markerHeight="1" overflow="visible" orient="auto">
   <!-- REF_ARROW_ANGLED -->
   <g transform="scale(0.0092592592)">
    <path d="M -27 54 L -9 0 L -27 -54 L 135 0 z"/>
   </g>
  </marker>
  <marker id="DefaultArrow4" markerUnits="strokeWidth" viewBox="0 0 1 1" markerWidth="1" markerHeight="1" overflow="visible" orient="auto">
   <!-- REF_ARROW_ROUNDED -->
   <g transform="scale(0.0092592592)">
    <path d="M -9,0 L -9,-45 C -9,-51.708 2.808,-56.580 9,-54 L 117,-9 C 120.916,-7.369 126.000,-4.242 126,0 C 126,4.242 120.916,7.369 117,9 L 9,54 C 2.808,56.580 -9,51.708 -9,45 z"/>
   </g>
  </marker>
  <marker id="DefaultArrow5" markerUnits="strokeWidth" viewBox="0 0 1 1" markerWidth="1" markerHeight="1" overflow="visible" orient="auto">
   <!-- REF_ARROW_SPOT -->
   <g transform="scale(0.0092592592)">
    <path d="M -54, 0 C -54,29.807 -29.807,54 0,54 C 29.807,54 54,29.807 54,0 C 54,-29.807 29.807,-54 0,-54 C -29.807,-54 -54,-29.807 -54,0 z"/>
   </g>
  </marker>
  <marker id="DefaultArrow6" markerUnits="strokeWidth" viewBox="0 0 1 1" markerWidth="1" markerHeight="1" overflow="visible" orient="auto">
   <!-- REF_ARROW_DIAMOND -->
   <g transform="scale(0.0092592592)">
    <path d="M -63,0 L 0,63 L 63,0 L 0,-63 z"/>
   </g>
  </marker>
  <marker id="DefaultArrow7" markerUnits="strokeWidth" viewBox="0 0 1 1" markerWidth="1" markerHeight="1" overflow="visible" orient="auto">
   <!-- REF_ARROW_FEATHER -->
   <g transform="scale(0.0092592592)">
    <path d="M 18,-54 L 108,-54 L 63,0 L 108,54 L 18, 54 L -36,0 z"/>
   </g>
  </marker>
  <marker id="DefaultArrow8" markerUnits="strokeWidth" viewBox="0 0 1 1" markerWidth="1" markerHeight="1" overflow="visible" orient="auto">
   <!-- REF_ARROW_FEATHER2 -->
   <g transform="scale(0.0092592592)">
    <path d="M -36,0 L 18,-54 L 54,-54 L 18,-18 L 27,-18 L 63,-54 L 99,-54 L 63,-18 L 72,-18 L 108,-54 L 144,-54 L 90,0 L 144,54 L 108,54 L 72,18 L 63,18 L 99,54 L 63,54 L 27,18 L 18,18 L 54,54 L 18,54 z"/>
   </g>
  </marker>
  <marker id="DefaultArrow9" markerUnits="strokeWidth" viewBox="0 0 1 1" markerWidth="1" markerHeight="1" overflow="visible" orient="auto">
   <!-- REF_ARROW_HOLLOWDIAMOND -->
   <g transform="scale(0.0092592592)">
    <path d="M 0,45 L -45,0 L 0, -45 L 45, 0 z M 0, 63 L-63, 0 L 0, -63 L 63, 0 z"/>
   </g>
  </marker>
  <filter id="StainedFilter">
   <feBlend mode="multiply" in2="BackgroundImage" in="SourceGraphic" result="blend"/>
   <feComposite in="blend" in2="SourceAlpha" operator="in" result="comp"/>
  </filter>
  <filter id="BleachFilter">
   <feBlend mode="screen" in2="BackgroundImage" in="SourceGraphic" result="blend"/>
   <feComposite in="blend" in2="SourceAlpha" operator="in" result="comp"/>
  </filter>
  <filter id="InvertTransparencyBitmapFilter">
   <feComponentTransfer>
    <feFuncR type="gamma" amplitude="1.055" exponent=".416666666" offset="-0.055"/>
    <feFuncG type="gamma" amplitude="1.055" exponent=".416666666" offset="-0.055"/>
    <feFuncB type="gamma" amplitude="1.055" exponent=".416666666" offset="-0.055"/>
   </feComponentTransfer>
   <feComponentTransfer>
    <feFuncR type="linear" slope="-1" intercept="1"/>
    <feFuncG type="linear" slope="-1" intercept="1"/>
    <feFuncB type="linear" slope="-1" intercept="1"/>
    <feFuncA type="linear" slope="1" intercept="0"/>
   </feComponentTransfer>
   <feComponentTransfer>
    <feFuncR type="gamma" amplitude="1" exponent="2.4" offset="0"/>
    <feFuncG type="gamma" amplitude="1" exponent="2.4" offset="0"/>
    <feFuncB type="gamma" amplitude="1" exponent="2.4" offset="0"/>
   </feComponentTransfer>
  </filter>
 </defs>
 <g id="Document" fill="none" stroke="black" font-family="Times New Roman" font-size="16" transform="scale(1 -1)">
  <g id="Spread" transform="translate(0 -450)">
   <g id="Page background">
    <rect x="681.692" y="-32.535" width="599.999" height="449.999" fill="#ffff00" stroke="none" stroke-width="0" stroke-linejoin="bevel" stroke-miterlimit="79.8403193612775"/>
   </g>
   <g id="Layer 1"/>
   <g id="Wreath" display="none"/>
   <g id="Runners" display="none"/>
   <g id="TITLE" display="none"/>
   <g id="text below">
    <path d="M 419.361,299.894 C 420.479,303.813 422.581,305.48 423.36,308.597 C 424.482,313.092 428.549,316.601 433.473,318.24 C 435.837,319.027 435.464,315.851 435.12,314.477 C 434.421,311.691 423.511,299.202 419.361,299.894 Z" fill="#e20000" stroke="#000000" stroke-width="0.5" marker-start="none" marker-end="none" stroke-miterlimit="79.8403193612775"/>
    <path d="M 417.216,308.836 C 416.152,305.641 413.89,303.755 413.125,299.923 C 412.314,295.866 411.325,286.954 411.956,284.434 C 412.297,283.066 413.623,286.422 413.709,286.48 C 414.67,287.119 417.602,288.766 418.677,289.841 C 422.819,293.983 426.724,298.91 430.805,302.991 C 433.429,305.615 430.439,308.398 429.636,305.183 C 428.752,301.648 423.821,298.554 421.161,296.562 C 420.716,296.228 418.19,294.833 417.655,295.101 C 416.684,295.585 416.778,298.125 416.778,299.484 C 416.778,303.079 422.735,309.665 421.746,312.635 C 420.761,315.588 417.506,309.514 417.216,308.836 Z" fill="#5368d9" stroke="#000000" stroke-width="0.5" marker-start="none" marker-end="none" stroke-miterlimit="79.8403193612775"/>
    <path d="M 408.888,300.361 C 407.072,294.926 406.53,291.239 404.942,284.873 C 404.54,283.262 404.274,278.062 405.235,277.421 C 407.141,276.148 407.719,270.203 407.719,267.046 C 407.719,260.675 411.139,273.71 413.709,274.352 C 415.51,274.801 418.096,279.112 418.824,280.927 C 419.896,283.601 421.979,286.409 422.623,288.964 C 423.016,290.529 421.305,291.732 421.015,290.571 C 419.658,285.143 413.973,283.777 412.248,278.589 C 411.621,276.705 409.472,277.442 409.472,279.612 C 409.472,287.396 409.872,293.807 411.372,299.777 C 412.003,302.291 409.529,301.431 408.888,300.361 Z" fill="#35af35" stroke="#000000" stroke-width="0.5" marker-start="none" marker-end="none" stroke-miterlimit="79.8403193612775"/>
    <path d="M 400.705,282.389 C 396.543,277.18 400.351,262.006 403.92,256.672 C 405.25,254.683 407.259,253.377 408.011,251.119 C 408.159,250.672 408.751,245.139 409.91,246.298 C 410.283,246.671 409.97,249.809 410.057,250.243 C 410.762,253.774 413.793,261.948 415.755,265.877 C 416.231,266.832 419.918,275.229 417.655,275.229 C 415.934,275.229 415.355,272.902 415.024,271.576 C 414.167,268.148 412.145,264.128 411.225,260.471 C 411.072,259.864 408.232,255.709 407.865,257.549 C 407.167,261.04 403.335,265.792 403.335,269.822 C 403.335,272.704 402.226,279.342 400.705,282.389 Z" fill="#e20000" stroke="#000000" stroke-width="0.5" marker-start="none" marker-end="none" stroke-miterlimit="79.8403193612775"/>
    <path d="M 399.828,257.987 C 395.727,251.828 405.76,238.027 409.764,234.024 C 411.331,232.456 418.418,226.131 417.655,228.033 C 416.57,230.734 417.801,232.329 417.801,234.9 C 417.801,241.992 418.324,268.85 414.732,254.48 C 413.894,251.131 417.87,237.619 414.002,236.654 C 411.496,236.028 404.935,254.926 399.828,257.987 Z" fill="#5368d9" stroke="#000000" stroke-width="0.5" marker-start="none" marker-end="none" stroke-miterlimit="79.8403193612775"/>
    <path d="M 404.212,236.215 C 402.517,234.804 404.046,228.636 405.527,227.156 C 409.544,223.138 411.531,216.084 418.093,214.444 C 420.752,213.779 428.737,212.858 430.513,211.083 C 430.513,219.991 425.194,230.749 423.061,239.284 C 422.104,243.109 420.785,238.386 420.431,236.215 C 419.684,231.637 423.805,219.425 424.668,218.535 C 425.242,217.943 418.108,218.628 416.39,220.347 C 412.109,224.627 407.929,231.567 404.212,236.215 Z" fill="#35af35" stroke="#000000" stroke-width="0.5" marker-start="none" marker-end="none" stroke-miterlimit="79.8403193612775"/>
    <path d="M 414.732,213.567 C 410.854,212.274 424.289,201.716 427.152,201.001 C 434.292,199.215 442.347,202.316 449.8,202.316 C 448.67,203.445 446.56,203.157 445.563,204.654 C 441.964,210.051 440.582,218.016 435.189,221.604 C 432.241,223.564 427.101,227.298 431.097,221.311 C 433.73,217.365 434.856,214.385 437.088,209.914 C 437.441,209.206 440.887,206.701 440.595,205.823 C 440.339,205.057 436.859,205.092 435.627,205.092 C 431.271,205.092 415.439,210.03 414.732,213.567 Z" fill="#e20000" stroke="#000000" stroke-width="0.5" marker-start="none" marker-end="none" stroke-miterlimit="79.8403193612775"/>
    <path d="M 424.814,196.618 C 423.432,193.851 432.12,193.597 434.166,192.234 C 447.133,183.588 459.121,197.494 471.28,197.494 C 473.682,197.494 466.887,198.921 466.166,199.102 C 462.188,200.094 457.746,199.878 453.161,198.955 C 449.164,198.15 445.363,196.42 440.887,195.303 C 435.603,193.984 429.116,197.477 424.814,196.618 Z" fill="#4744b0" stroke="#000000" stroke-width="0.5" marker-start="none" marker-end="none" stroke-miterlimit="79.8403193612775"/>
    <path d="M 477.417,197.933 C 476.692,197.788 488.741,195.262 492.174,193.549 C 498.713,190.284 508.901,188.894 517.014,190.919 C 520.755,191.852 525.469,190.961 527.389,193.841 C 528.36,195.298 517.158,193.186 512.193,194.426 C 500.478,197.349 490.932,202.996 477.417,197.933 Z" fill="#4744b0" stroke="#000000" stroke-width="0.5" marker-start="none" marker-end="none" stroke-miterlimit="79.8403193612775"/>
    <path d="M 521.398,223.649 C 516.701,217.778 512.522,212.309 508.101,205.677 C 507.153,204.256 501.264,200.263 501.818,200.124 C 503.476,199.707 505.786,199.686 507.663,199.686 C 519.112,199.686 530.79,198.652 536.448,207.138 C 536.909,207.83 540.574,210.721 539.955,211.96 C 539.952,211.964 536.883,209.425 536.74,209.33 C 534.653,207.938 531.797,207.559 529.288,206.554 C 525.565,205.061 507.116,197.509 513.362,206.846 C 515.745,210.408 517.666,214.664 520.814,217.805 C 521.881,218.87 523.965,222.916 521.398,223.649 Z" fill="#e20000" stroke="#000000" stroke-width="0.5" marker-start="none" marker-end="none" stroke-miterlimit="79.8403193612775"/>
    <path d="M 532.503,239.138 C 526.706,235.657 521.142,209.658 519.791,208.307 C 531.289,208.307 539.416,215.321 544.777,222.48 C 546.18,224.355 552.317,235.881 547.699,231.247 C 542.047,225.576 538.602,220.399 532.065,216.051 C 531.397,215.606 529.066,213.154 528.265,213.421 C 526.812,213.904 528.104,217.163 528.265,217.805 C 529.201,221.557 534.257,235.039 532.503,239.138 Z" fill="#35af35" stroke="#000000" stroke-width="0.5" marker-start="none" marker-end="none" stroke-miterlimit="79.8403193612775"/>
    <path d="M 537.046,256.994 C 534.232,251.353 534.88,238.956 535.925,234.777 C 536.309,233.237 537.072,230.483 536.416,229.17 C 536.322,228.982 533.853,224.194 535.294,224.194 C 536.08,224.194 535.994,226.155 536.486,226.647 C 536.721,226.882 538.06,228.389 538.098,228.539 C 538.25,229.151 541.4,230.674 542.022,230.922 C 544.994,232.107 547.432,235.924 549.451,238.141 C 553.378,242.454 553.586,247.743 555.128,251.597 C 555.473,252.461 556.244,257.786 553.797,255.942 C 552.694,255.111 552.169,251.011 551.344,249.635 C 549.47,246.512 547.261,242.145 545.246,239.122 C 544.598,238.15 538.729,230.638 538.729,236.109 C 538.729,239.783 539.87,254.639 537.046,256.994 Z" fill="#5368d9" stroke="#000000" stroke-width="0.5" marker-start="none" marker-end="none" stroke-miterlimit="79.8403193612775"/>
    <path d="M 538.238,272.482 C 536.951,273.34 537.327,271.704 537.327,270.8 C 537.327,266.844 538.705,263.186 539.57,259.727 C 540.266,256.942 542.864,253.077 542.864,250.966 C 542.864,249.714 544.343,242.779 545.176,244.028 C 546.649,246.237 546.678,248.857 548.47,251.247 C 552.925,257.187 559.668,269.724 556.6,278.93 C 556.022,280.661 554.077,280.082 554.077,278.44 C 554.077,269.994 549.757,265.415 548.19,257.554 C 547.45,253.844 544.055,253.868 544.055,257.695 C 544.055,262.095 540.539,269.605 538.238,272.482 Z" fill="#e20000" stroke="#000000" stroke-width="0.5" marker-start="none" marker-end="none" stroke-miterlimit="79.8403193612775"/>
    <path d="M 534.523,289.303 C 531.456,289.303 533.752,286.059 533.752,284.327 C 533.752,282.863 535.589,282.119 536.205,280.893 C 537.519,278.272 538.915,276.663 540.621,274.094 C 541.728,272.424 543.352,270.732 544.686,269.399 C 545.228,268.856 545.356,263.357 546.368,263.862 C 547.524,264.438 547.456,269.011 548.47,270.03 C 549.388,270.952 549.808,273.286 550.082,274.655 C 550.662,277.558 551.191,283.224 550.993,286.499 C 550.792,289.817 550.105,293.064 548.47,296.872 C 548.011,297.943 547.23,299.675 546.017,299.675 C 545.153,299.675 546.718,294.813 546.718,293.157 C 546.718,287.922 546.578,282.749 546.578,277.458 C 546.578,276.118 546.773,273.889 544.896,274.515 C 541.729,275.57 535.463,287.737 534.523,289.303 Z" fill="#5368d9" stroke="#000000" stroke-width="0.5" marker-start="none" marker-end="none" stroke-miterlimit="79.8403193612775"/>
    <path d="M 526.043,305.633 C 521.924,302.326 531.218,295.691 533.402,293.508 C 535.677,291.232 537.283,290.406 539.78,288.742 C 541.018,287.916 542.239,282.6 543.424,282.995 C 543.994,283.185 543.775,284.634 543.775,285.378 C 543.775,289.284 542.934,293.69 542.934,298.133 C 542.934,301.508 542.265,303.534 540.971,306.123 C 540.083,307.897 537.974,311.996 536.276,313.132 C 535.057,313.946 534.619,311.059 535.154,310.258 C 537.665,306.491 538.742,302.506 540.34,297.713 C 541.432,294.434 538.703,290.963 536.906,294.559 C 536.471,295.428 535.166,295.835 534.664,296.592 C 533.131,298.901 525.443,305.289 526.043,305.633 Z" fill="#35af35" stroke="#000000" stroke-width="0.5" marker-start="none" marker-end="none" stroke-miterlimit="79.8403193612775"/>
    <path d="M 521.838,316.986 C 521.838,310.948 529.476,306.886 532.281,302.198 C 533.48,300.193 534.826,298.6 536.205,297.222 C 536.649,296.777 537.167,298.993 536.766,299.395 C 536.119,300.041 535.435,301.166 535.435,302.549 C 535.435,304.377 532.55,306.324 532.07,308.226 C 531.281,311.348 526.688,313.271 524.712,315.234 C 524.11,315.831 522.754,317.443 521.838,316.986 Z" stroke="#0c0000" fill="#e20000" stroke-width="0.5" marker-start="none" marker-end="none" stroke-miterlimit="79.8403193612775"/>
    <path d="M 441.776,282.762 C 439.053,278.223 439.341,273.006 441.523,269.735 C 442.169,268.765 451.352,282.626 451.352,286.37" fill="none" stroke="#000000" stroke-width="1.5" stroke-miterlimit="79.8403193612775"/>
    <path d="M 508.598,291.164 C 510.821,288.051 514.974,288.542 517.781,286.67 C 520.158,285.083 519.989,282.703 522.08,280.613 C 528.218,274.474 532.55,249.164 518.563,263.224" fill="none" stroke="#000000" stroke-width="1.5" stroke-miterlimit="79.8403193612775"/>
    <path d="M 528.528,264.201 C 524.843,264.201 511.413,261.719 516.023,268.304 C 519.258,272.925 523.268,267.538 521.298,265.568" fill="none" stroke="#000000" stroke-width="1.5" stroke-miterlimit="79.8403193612775"/>
    <g id="Group" font-family="Arial" fill="#4744b0">
     <text xml:space="preserve" transform="translate(466.507 188.477) scale(1 -1)" stroke="none" font-weight="bold" font-size="7.333" stroke-width="0.152" stroke-miterlimit="79.8403193612775"><tspan x="0" y="0">EST</tspan></text>
     <text xml:space="preserve" transform="translate(459.551 177.98) scale(1 -1)" stroke="none" font-weight="bold" font-size="12" stroke-width="0.25" stroke-miterlimit="79.8403193612775"><tspan x="0" y="0">1981</tspan></text>
     <text xml:space="preserve" transform="translate(413.577 164.894) scale(1 -1)" stroke="#36356a" font-size="11.19" stroke-width="0.233" stroke-miterlimit="79.8403193612775"><tspan x="0" y="0">Registered Charity 287788</tspan></text>
    </g>
    <g id="Group_1" stroke="#000000" stroke-width="1.5" fill="#000000" stroke-miterlimit="79.8403193612775">
     <path d="M 461.434,301.744 C 459.317,319.643 441.348,298.631 441.523,284.858 C 441.551,282.587 443.758,281.905 446.564,282.841 C 453.987,285.315 445.278,312.514 461.434,301.744 Z" marker-start="none" marker-end="none"/>
     <path d="M 461.938,300.484 C 461.938,298.809 461.677,292.923 459.922,292.923" fill="none"/>
     <path d="M 462.442,293.175 C 476.915,293.175 466.678,271.043 472.776,264.946 C 473.741,263.98 474.111,260.769 471.516,261.418 C 465.263,262.981 467.755,283.481 468.995,284.101" fill="none"/>
     <path d="M 465.971,281.833 C 461.253,278.058 461.459,268.475 459.166,268.475 C 453.897,268.475 445.808,266.821 445.808,272.508" fill="none"/>
     <path d="M 451.352,288.134 C 456.05,279.919 461.938,285.4 461.938,292.419" fill="none"/>
     <path d="M 444.547,280.573 C 443.754,278.592 443.315,277.101 442.531,275.532" fill="none"/>
     <path d="M 452.132,299.566 C 455.551,298.994 458.185,298.719 461.315,299.761" fill="none"/>
     <path d="M 450.764,294.486 C 455.375,290.642 456.486,289.438 461.119,294.095" fill="none"/>
     <path d="M 448.81,268.108 C 444.742,266.484 443.925,264.63 443.925,259.121 C 443.925,246.502 450.764,233.326 450.764,220.043 C 450.764,213.773 448.85,208.288 452.327,204.803 C 456.167,200.952 455.811,211.906 456.235,213.596 C 457.853,220.053 459.166,229.043 459.166,236.651 C 459.166,242.744 472.43,264 461.315,267.718" fill="none"/>
     <path d="M 453.89,265.568 C 447.799,250.349 460.364,224.2 452.327,208.125 C 452.461,208.259 452.579,208.24 452.718,208.515" fill="none"/>
     <path d="M 444.902,252.868 C 447.741,252.868 449.925,251.696 452.913,251.696 C 457.661,251.696 458.862,259.076 464.636,256.19" fill="none"/>
     <path d="M 462.683,268.304 C 458.656,266.961 444.393,268.694 443.73,265.373 C 442.988,261.66 441.776,257.946 441.776,253.064 C 441.776,250.23 448.048,251.544 449.787,251.891 C 454.808,252.893 460.227,253.248 464.636,256.19 C 464.636,255.794 464.086,255.194 464.441,255.017 C 468.68,255.017 465.562,268.879 462.683,268.304 Z" marker-start="none" marker-end="none"/>
     <path d="M 454.281,207.929 C 454.671,207.929 455.063,207.929 455.453,207.929" fill="none"/>
     <path d="M 455.062,233.33 C 455.583,233.33 456.104,233.33 456.626,233.33" fill="none"/>
     <path d="M 448.81,239.777 C 449.2,239.777 449.592,239.777 449.982,239.777" fill="none"/>
     <path d="M 508.598,293.313 C 500.512,291.011 490.069,293.594 498.047,302.106 C 503.835,308.282 514.908,298.568 508.598,293.313 Z" marker-start="none" marker-end="none"/>
     <path d="M 495.898,293.509 C 495.898,279.953 508.403,276.829 508.403,292.336" fill="none"/>
     <path d="M 492.577,287.647 C 493.206,283.228 494.136,279.439 497.071,277.487 C 504.647,272.444 511.236,276.786 507.817,287.061" fill="none"/>
     <path d="M 516.414,269.281 C 513.874,276.894 513.483,279.564 513.483,288.233" fill="none"/>
     <path d="M 494.475,292.661 C 493.822,293.182 491.232,296.251 491.232,297.109 C 491.232,298.547 490.683,301.09 489.842,301.65 C 488.888,302.284 487.273,305.384 485.486,303.597 C 482.934,301.045 483.885,298.12 483.169,294.514 C 481.892,288.091 482.759,282.032 484.188,276.349 C 484.699,274.314 487.559,274.71 488.173,273.476" fill="none"/>
     <path d="M 482.767,291.945 C 488.853,290.478 486.26,282.239 488.729,277.276" fill="none"/>
     <path d="M 495.495,292.939 C 493.711,292.427 493.489,292.268 492.807,290.9 C 491.821,288.923 493.756,286.628 492.529,284.783 C 490.939,282.394 488.035,277.29 487.735,273.846 C 486.463,269.89 483.91,264.612 483.91,260.316 C 483.91,260.174 488.363,260.949 489.564,261.428 C 490.932,261.973 490.173,263.769 491.046,264.208 C 491.046,259.539 495.499,262.43 497.534,259.389 C 498.46,258.003 497.8,254.595 498.368,252.901 C 499.14,250.591 505.501,254.755 509.026,254.755 C 515.687,254.755 509.489,262.974 509.489,265.506 C 509.637,265.765 509.606,266.039 509.304,266.34 C 508.697,266.942 508.387,270.149 509.119,270.881 C 511.06,272.369 512.113,276.378 513.66,277.925" fill="none"/>
     <path d="M 489.749,271.9 C 490.479,267.535 495.884,264.652 498.739,261.798 C 501.248,264.32 507.031,263.418 509.304,265.691" fill="none"/>
     <path d="M 487.988,274.125 C 493.433,272.303 502.08,267.667 509.211,271.252" fill="none"/>
     <path d="M 490.954,268.749 C 489.682,270.02 489.471,271.007 489.471,273.291" fill="none"/>
     <path d="M 484.003,262.447 C 482.82,258.912 485.832,247.507 488.173,245.95 C 489.112,245.325 487.487,246.079 486.69,246.877 C 486.69,243.582 491.658,236.493 489.934,233.902 C 488.271,231.403 487.988,232.787 487.988,229.175 C 485.566,231.596 488.046,224.449 491.046,224.449 C 493.728,224.449 492.017,227.013 493.085,228.434 C 494.297,230.048 493.36,233.993 494.012,235.941 C 495.49,240.36 492.69,243.736 494.012,249.009 C 494.613,251.408 497.997,256.196 497.997,258.091" fill="none"/>
     <path d="M 488.081,240.575 C 491.521,240.575 492.181,241.646 494.29,242.707" fill="none"/>
     <path d="M 490.305,236.219 C 490.305,232.625 490.768,229.809 490.768,226.395" fill="none"/>
     <path d="M 493.572,229.592 C 492.467,229.059 492.14,227.878 490.768,227.878 C 489.621,228.369 488.758,228.419 487.617,228.99" fill="none"/>
     <path d="M 485.823,250.041 C 486.218,249.67 488.729,243.266 488.729,243.263" fill="none"/>
     <path d="M 497.905,256.423 C 497.905,245.555 498.739,232.676 498.739,220.186 C 498.739,217.16 498.463,210.729 500.314,208.879 C 500.775,208.417 502.883,206.009 503.929,207.581 C 506.108,210.855 503.493,219.023 505.412,223.8 C 506.961,227.658 505.875,231.066 505.875,234.551 C 505.875,238.192 507.314,241.516 508.748,244.375 C 510.197,247.266 508.285,251.711 508.285,255.033" fill="none"/>
     <path d="M 498.831,218.147 C 500.161,218.147 502.936,217.988 503.743,218.795" fill="none"/>
     <path d="M 500.963,213.605 C 500.594,211.4 501.248,210.244 502.075,208.601" fill="none"/>
     <path d="M 504.114,211.288 C 502.317,210.775 501.166,210.825 498.924,210.825" fill="none"/>
     <path d="M 503.095,239.556 C 504.315,239.556 505.413,239.648 506.709,239.648" fill="none"/>
    </g>
   </g>
  </g>
 </g>
</svg>
